<svg height="511pt" viewBox="-31 1 511 511.999" width="511pt" xmlns="http://www.w3.org/2000/svg"><path d="m132.0625 442.449219c-.652344 0-1.3125-.070313-1.949219-.199219-.640625-.128906-1.269531-.320312-1.882812-.570312-.597657-.25-1.179688-.558594-1.71875-.917969-.550781-.363281-1.058594-.78125-1.519531-1.242188-.460938-.460937-.878907-.96875-1.25-1.519531-.359376-.539062-.671876-1.121094-.921876-1.730469-.25-.597656-.4375-1.230469-.570312-1.871093-.128906-.636719-.1875-1.296876-.1875-1.949219 0-.648438.058594-1.308594.1875-1.960938.132812-.628906.320312-1.257812.570312-1.867187.25-.601563.5625-1.179688.921876-1.722656.371093-.546876.789062-1.058594 1.25-1.519532.460937-.457031.96875-.878906 1.519531-1.25.539062-.359375 1.121093-.667968 1.71875-.917968.613281-.25 1.242187-.441407 1.882812-.570313 1.289063-.261719 2.609375-.261719 3.898438 0 .640625.128906 1.269531.320313 1.871093.570313.609376.25 1.1875.558593 1.730469.917968.546875.371094 1.058594.792969 1.519531 1.25.460938.460938.878907.972656 1.238282 1.519532.359375.542968.671875 1.121093.921875 1.722656.25.609375.449219 1.238281.570312 1.867187.128907.652344.199219 1.3125.199219 1.960938 0 .652343-.070312 1.3125-.199219 1.949219-.121093.640624-.320312 1.273437-.570312 1.871093-.25.609375-.5625 1.191407-.921875 1.730469-.359375.550781-.777344 1.058594-1.238282 1.519531-.460937.460938-.972656.878907-1.519531 1.242188-.542969.359375-1.121093.667969-1.730469.917969-.601562.25-1.230468.441406-1.871093.570312s-1.300781.199219-1.949219.199219zm0 0"/><path d="m364.660156 224.441406c-2.558594 0-5.117187-.972656-7.066406-2.921875-9.359375-9.351562-24.589844-9.351562-33.949219 0-3.90625 3.902344-10.238281 3.898438-14.140625-.007812-3.902344-3.910157-3.898437-10.242188.007813-14.144531 17.152343-17.132813 45.0625-17.132813 62.214843 0 3.90625 3.902343 3.910157 10.234374.007813 14.144531-1.953125 1.953125-4.515625 2.929687-7.074219 2.929687zm0 0"/><path d="m447.203125 302.570312-3.257813-6.953124c-12.527343-26.714844-31.273437-66.699219-35.988281-84.082032 3.832031-53.859375-15.304687-107.804687-52.65625-148.269531-37.117187-40.207031-88.660156-63.265625-141.417969-63.265625-10.707031 0-21.003906.714844-30.558593 2.117188-47.957031 6.800781-90.007813 26.339843-121.605469 56.503906-30.9375 29.539062-51.28125 68.574218-58.824219 112.894531-.011719.0625-.023437.121094-.03125.183594-6.023437 39.917969-.410156 84.742187 15.398438 122.972656 17.832031 43.128906 47.492187 74.414063 83.597656 88.210937 4.480469 2.898438 8.132813 6.824219 11.148437 11.972657 2.789063 4.765625 8.914063 6.367187 13.679688 3.578125 4.765625-2.789063 6.371094-8.917969 3.578125-13.683594-4.824219-8.238281-11.125-14.765625-18.730469-19.40625-.542968-.332031-1.121094-.613281-1.71875-.835938-67.703125-25.203124-97.960937-118.082031-87.191406-189.730468 14.207031-83.214844 75.324219-140.355469 163.554688-152.863282 8.644531-1.269531 17.964843-1.914062 27.703124-1.914062 47.191407 0 93.382813 20.714844 126.722657 56.835938 33.964843 36.792968 51.199219 85.921874 47.285156 134.792968-.082031 1.054688 0 2.121094.25 3.148438 4.46875 18.460937 23.671875 59.421875 37.695313 89.332031l3.25 6.9375c.867187 1.851563.203124 3.371094-.265626 4.113281-.476562.746094-1.585937 2-3.65625 2h-30.386718c-5.523438 0-10 4.476563-10 10v27.699219c-4.863282 1.140625-9.949219.730469-14.65625-1.222656-5.097656-2.121094-10.953125.292969-13.070313 5.394531-2.121093 5.097656.292969 10.953125 5.394531 13.070312 5.445313 2.265626 11.171876 3.398438 16.902344 3.398438 1.8125 0 3.625-.113281 5.429688-.339844v41.054688c0 8.972656-7.316406 16.277344-16.308594 16.277344h-77.222656c-3.207032 0-6.21875 1.535156-8.097656 4.132812l-40.097657 55.375h-106.820312c.738281-3.503906 1.535156-7.617188 2.300781-12.183594.917969-5.445312-2.757812-10.601562-8.203125-11.515625-5.441406-.914062-10.605469 2.757813-11.519531 8.203125-2.25 13.398438-4.832032 22.710938-4.855469 22.800782-.84375 3.011718-.226563 6.246093 1.664063 8.738281 1.890624 2.492187 4.835937 3.957031 7.964843 3.957031h124.574219c3.207031 0 6.21875-1.539062 8.097656-4.136719l40.101563-55.375h72.117187c20.019532 0 36.308594-16.273437 36.308594-36.277343v-79.050782h20.382812c8.367188 0 16.042969-4.210937 20.53125-11.265625 4.480469-7.042969 5.042969-15.761719 1.507813-23.324219zm0 0"/><path d="m245.554688 239.425781c4.375-4.289062 8.429687-8.949219 12.113281-13.960937 17.8125-24.1875 25.160156-53.828125 20.6875-83.460938l-1.03125-6.84375c-.820313-5.460937-5.914063-9.222656-11.375-8.398437l-7.699219 1.160156c-.074219.007813-.148438.019531-.222656.035156-16.074219 2.785157-31.089844 8.78125-44.28125 17.507813-9.378906-21.570313-24.082032-33.347656-30.964844-38.863282-.871094-.695312-1.933594-1.546874-2.359375-1.9375-1.882813-2.207031-4.636719-3.5-7.554687-3.515624-2.71875.007812-5.300782 1.070312-7.183594 2.980468-.210938.183594-.496094.414063-.847656.699219-14.503907 11.929687-25.324219 25.707031-32.292969 41.085937-13.355469-8.972656-28.609375-15.125-44.957031-17.957031-.074219-.015625-.148438-.023437-.222657-.035156l-7.699219-1.160156c-5.460937-.824219-10.554687 2.9375-11.375 8.398437l-1.03125 6.839844c-4.472656 29.640625 2.875 59.28125 20.683594 83.464844 3.6875 5.007812 7.742188 9.671875 12.117188 13.957031-12.925782 5.792969-24.675782 14.554687-24.675782 28.585937 0 28.855469 49.007813 43.953126 97.421876 43.953126 48.414062 0 97.425781-15.097657 97.425781-43.953126-.003907-14.027343-11.753907-22.789062-24.675781-28.582031zm13.445312-91.308593c2.722656 23.308593-3.414062 46.453124-17.4375 65.492187-13.875 18.851563-34.046875 31.734375-57.136719 36.589844l-1.097656-.785157c-2.429687-22.988281 3.730469-45.75 17.535156-64.503906 14.082031-19.113281 34.652344-32.113281 58.136719-36.792968zm-93.960938 127.125c-.058593-.066407-.109374-.132813-.152343-.191407.046875.0625.101562.128907.152343.191407zm15.6875-170.199219c-.0625-.078125-.121093-.15625-.183593-.230469.070312.082031.128906.160156.183593.230469zm-7.847656 19.277343c7.109375 5.871094 18.238282 16.300782 24.535156 34.257813-4.582031 4.429687-8.816406 9.261719-12.652343 14.472656-4.734375 6.429688-8.726563 13.242188-11.957031 20.339844-3.226563-7.097656-7.222657-13.914063-11.953126-20.339844-3.691406-5.011719-7.75-9.671875-12.128906-13.960937 4.851563-12.839844 12.953125-24.496094 24.15625-34.769532zm-86.265625 23.796876c23.484375 4.683593 44.054688 17.679687 58.132813 36.792968 13.808594 18.753906 19.964844 41.515625 17.535156 64.503906l-1.09375.785157c-23.089844-4.851563-43.261719-17.738281-57.140625-36.59375-14.019531-19.035157-20.15625-42.179688-17.433594-65.488281zm86.191407 143.84375c-50.097657 0-77.425782-15.824219-77.425782-23.953126 0-1.125 1.140625-6.914062 22.804688-14.128906 12.269531 7.886719 26.074218 13.4375 40.816406 16.28125 1.433594 1.25 2.71875 2.316406 3.804688 3.21875.867187.722656 1.929687 1.605469 2.339843 1.996094 1.882813 2.242188 4.660157 3.554688 7.597657 3.570312h.0625c2.734374 0 5.335937-1.117187 7.210937-3.070312.207031-.183594.488281-.417969.832031-.714844 1.265625-1.078125 3.203125-2.734375 5.566406-4.960937 14.816407-2.832031 28.691407-8.394531 41.015626-16.316407 21.660156 7.210938 22.796874 13 22.796874 14.125 0 8.128907-27.328124 23.953126-77.421874 23.953126zm0 0"/></svg>